<svg width="25" height="25" viewBox="0 0 25 25" fill="none" xmlns="http://www.w3.org/2000/svg">
<path d="M22.3126 10.5415H21.5071V10.5H12.5071V14.5H18.1586C17.3341 16.8285 15.1186 18.5 12.5071 18.5C9.19358 18.5 6.50708 15.8135 6.50708 12.5C6.50708 9.1865 9.19358 6.5 12.5071 6.5C14.0366 6.5 15.4281 7.077 16.4876 8.0195L19.3161 5.191C17.5301 3.5265 15.1411 2.5 12.5071 2.5C6.98458 2.5 2.50708 6.9775 2.50708 12.5C2.50708 18.0225 6.98458 22.5 12.5071 22.5C18.0296 22.5 22.5071 18.0225 22.5071 12.5C22.5071 11.8295 22.4381 11.175 22.3126 10.5415Z" fill="#FFC107"/>
<path d="M3.6601 7.8455L6.9456 10.255C7.8346 8.054 9.9876 6.5 12.5071 6.5C14.0366 6.5 15.4281 7.077 16.4876 8.0195L19.3161 5.191C17.5301 3.5265 15.1411 2.5 12.5071 2.5C8.6661 2.5 5.3351 4.6685 3.6601 7.8455Z" fill="#FF3D00"/>
<path d="M12.5071 22.5C15.0901 22.5 17.4371 21.5115 19.2116 19.904L16.1166 17.285C15.1126 18.0455 13.8646 18.5 12.5071 18.5C9.90605 18.5 7.69755 16.8415 6.86555 14.527L3.60455 17.0395C5.25955 20.278 8.62055 22.5 12.5071 22.5Z" fill="#4CAF50"/>
<path d="M22.3126 10.5415H21.5071V10.5H12.5071V14.5H18.1586C17.7626 15.6185 17.0431 16.583 16.1151 17.2855L16.1166 17.2845L19.2116 19.9035C18.9926 20.1025 22.5071 17.5 22.5071 12.5C22.5071 11.8295 22.4381 11.175 22.3126 10.5415Z" fill="#1976D2"/>
</svg>
