<svg width="29" height="30" viewBox="0 0 29 30" fill="none" xmlns="http://www.w3.org/2000/svg">
<g filter="url(#filter0_dd_4_19)">
<path fill-rule="evenodd" clip-rule="evenodd" d="M19.4465 3.5C20.7875 3.5 22.0775 4.03 23.0265 4.981C23.9765 5.93 24.5075 7.21 24.5075 8.55V16.45C24.5075 19.24 22.2375 21.5 19.4465 21.5H9.56751C6.77651 21.5 4.50751 19.24 4.50751 16.45V8.55C4.50751 5.76 6.76651 3.5 9.56751 3.5H19.4465ZM21.0375 10.04L21.1175 9.96C21.3565 9.67 21.3565 9.25 21.1065 8.96C20.9675 8.811 20.7765 8.72 20.5775 8.7C20.3675 8.689 20.1675 8.76 20.0165 8.9L15.5075 12.5C14.9275 12.981 14.0965 12.981 13.5075 12.5L9.00751 8.9C8.69651 8.67 8.26651 8.7 8.00751 8.97C7.73751 9.24 7.70751 9.67 7.93651 9.97L8.06751 10.1L12.6175 13.65C13.1775 14.09 13.8565 14.33 14.5675 14.33C15.2765 14.33 15.9675 14.09 16.5265 13.65L21.0375 10.04Z" fill="white"/>
</g>
<defs>
<filter id="filter0_dd_4_19" x="-1.49292" y="0.5" width="32" height="32" filterUnits="userSpaceOnUse" color-interpolation-filters="sRGB">
<feFlood flood-opacity="0" result="BackgroundImageFix"/>
<feColorMatrix in="SourceAlpha" type="matrix" values="0 0 0 0 0 0 0 0 0 0 0 0 0 0 0 0 0 0 127 0" result="hardAlpha"/>
<feOffset dy="4"/>
<feGaussianBlur stdDeviation="2"/>
<feComposite in2="hardAlpha" operator="out"/>
<feColorMatrix type="matrix" values="0 0 0 0 0 0 0 0 0 0 0 0 0 0 0 0 0 0 0.25 0"/>
<feBlend mode="normal" in2="BackgroundImageFix" result="effect1_dropShadow_4_19"/>
<feColorMatrix in="SourceAlpha" type="matrix" values="0 0 0 0 0 0 0 0 0 0 0 0 0 0 0 0 0 0 127 0" result="hardAlpha"/>
<feOffset dy="4"/>
<feGaussianBlur stdDeviation="2"/>
<feComposite in2="hardAlpha" operator="out"/>
<feColorMatrix type="matrix" values="0 0 0 0 0 0 0 0 0 0 0 0 0 0 0 0 0 0 0.25 0"/>
<feBlend mode="normal" in2="effect1_dropShadow_4_19" result="effect2_dropShadow_4_19"/>
<feBlend mode="normal" in="SourceGraphic" in2="effect2_dropShadow_4_19" result="shape"/>
</filter>
</defs>
</svg>
